<svg id="Capa_1" enable-background="new 0 0 512 512" height="512" viewBox="0 0 512 512" width="512" xmlns="http://www.w3.org/2000/svg"><g><path fill="white" d="m504.5 61h-497c-4.142 0-7.5 3.357-7.5 7.5v330c0 4.143 3.358 7.5 7.5 7.5h22.5v37.5c0 4.143 3.358 7.5 7.5 7.5h437c4.143 0 7.5-3.357 7.5-7.5v-37.5h22.5c4.143 0 7.5-3.357 7.5-7.5v-330c0-4.143-3.357-7.5-7.5-7.5zm-7.5 330h-429.5c-4.142 0-7.5 3.357-7.5 7.5s3.358 7.5 7.5 7.5h399.5v30h-422v-37.5c0-4.143-3.358-7.5-7.5-7.5h-22.5v-315h482z"/><path fill="white" d="m384.5 256h90c4.143 0 7.5-3.357 7.5-7.5v-150c0-4.143-3.357-7.5-7.5-7.5h-90c-4.143 0-7.5 3.357-7.5 7.5v150c0 4.143 3.357 7.5 7.5 7.5zm7.5-150h75v135h-75z"/><path d="m384.5 316h90c4.143 0 7.5-3.357 7.5-7.5s-3.357-7.5-7.5-7.5h-90c-4.143 0-7.5 3.357-7.5 7.5s3.357 7.5 7.5 7.5z"/><path fill="white" d="m384.5 286h90c4.143 0 7.5-3.357 7.5-7.5s-3.357-7.5-7.5-7.5h-90c-4.143 0-7.5 3.357-7.5 7.5s3.357 7.5 7.5 7.5z"/><path fill="white" d="m384.5 346h90c4.143 0 7.5-3.357 7.5-7.5s-3.357-7.5-7.5-7.5h-90c-4.143 0-7.5 3.357-7.5 7.5s3.357 7.5 7.5 7.5z"/><path d="m384.5 376h90c4.143 0 7.5-3.357 7.5-7.5s-3.357-7.5-7.5-7.5h-90c-4.143 0-7.5 3.357-7.5 7.5s3.357 7.5 7.5 7.5z"/><path d="m429.5 121c-12.406 0-22.5 10.094-22.5 22.5s10.094 22.5 22.5 22.5 22.5-10.094 22.5-22.5-10.094-22.5-22.5-22.5zm0 30c-4.136 0-7.5-3.364-7.5-7.5s3.364-7.5 7.5-7.5 7.5 3.364 7.5 7.5-3.364 7.5-7.5 7.5z"/><path d="m429.5 181c-12.406 0-22.5 10.094-22.5 22.5s10.094 22.5 22.5 22.5 22.5-10.094 22.5-22.5-10.094-22.5-22.5-22.5zm0 30c-4.136 0-7.5-3.364-7.5-7.5s3.364-7.5 7.5-7.5 7.5 3.364 7.5 7.5-3.364 7.5-7.5 7.5z"/><path fill="white" d="m166.792 233.896-8.292 16.584-8.292-16.584c-1.27-2.54-3.867-4.146-6.708-4.146h-30c-4.142 0-7.5 3.357-7.5 7.5 0 49.626 40.374 90 90 90s90-40.374 90-90c0-4.143-3.357-7.5-7.5-7.5h-30c-2.841 0-5.438 1.605-6.708 4.146l-8.292 16.584-8.292-16.584c-1.27-2.54-3.867-4.146-6.708-4.146h-45c-2.841 0-5.438 1.605-6.708 4.146zm47.073 10.854 12.927 25.854c1.27 2.54 3.867 4.146 6.708 4.146s5.438-1.605 6.708-4.146l12.927-25.854h17.493c-3.776 37.846-35.805 67.5-74.628 67.5s-70.852-29.654-74.628-67.5h17.493l12.927 25.854c1.27 2.54 3.867 4.146 6.708 4.146s5.438-1.605 6.708-4.146l12.927-25.854z"/><path fill="white" d="m136 214.75c20.678 0 37.5-16.822 37.5-37.5s-16.822-37.5-37.5-37.5-37.5 16.822-37.5 37.5 16.822 37.5 37.5 37.5zm0-60c12.407 0 22.5 10.094 22.5 22.5s-10.093 22.5-22.5 22.5-22.5-10.094-22.5-22.5 10.093-22.5 22.5-22.5z"/><path fill="white" d="m256 214.75c20.678 0 37.5-16.822 37.5-37.5s-16.822-37.5-37.5-37.5-37.5 16.822-37.5 37.5 16.822 37.5 37.5 37.5zm0-60c12.406 0 22.5 10.094 22.5 22.5s-10.094 22.5-22.5 22.5c-12.407 0-22.5-10.094-22.5-22.5s10.093-22.5 22.5-22.5z"/><path fill="white" d="m67.5 376h257c20.678 0 37.5-16.822 37.5-37.5v-210c0-20.678-16.822-37.5-37.5-37.5h-257c-20.678 0-37.5 16.822-37.5 37.5v210c0 20.678 16.822 37.5 37.5 37.5zm-22.5-247.5c0-12.406 10.093-22.5 22.5-22.5h257c12.406 0 22.5 10.094 22.5 22.5v210c0 12.406-10.094 22.5-22.5 22.5h-257c-12.407 0-22.5-10.094-22.5-22.5z"/></g></svg>